<svg xmlns="http://www.w3.org/2000/svg" width="100" height="100" viewBox="0 0 100 100"><title>Game-Tech_dark-bg</title><g id="BACKGROUND"><rect x="8.5" y="8.5" width="82" height="82" style="fill:#a166ff"/><path d="M89,10V89H10V10H89m3-3H7V92H92V7Z" style="fill:#fff"/><rect width="100" height="100" style="fill:none"/></g><g id="ICONS"><polygon points="33.67 52.83 35.67 52.83 35.67 50 38.5 50 38.5 48 35.67 48 35.67 45.17 33.67 45.17 33.67 48 30.83 48 30.83 50 33.67 50 33.67 52.83" style="fill:#232f3e"/><path d="M75.28,66.25v-16a1.09,1.09,0,0,0,0-.26c0-.34,0-.68,0-1A9.93,9.93,0,0,0,58.7,41.61H51V29.83a4.84,4.84,0,0,0-9.67,0v2.56a2.83,2.83,0,0,1-5.66,0V31.11h-2v1.28a4.83,4.83,0,0,0,9.66,0V29.83a2.84,2.84,0,0,1,5.67,0V41.61H41.3A9.93,9.93,0,0,0,24.72,49c0,.34,0,.68.05,1a1.09,1.09,0,0,0-.05.26V66.22a7.75,7.75,0,0,0,1.85,5.12A5.68,5.68,0,0,0,30.83,73c4.82,0,7.29-6.33,9.47-11.91.49-1.23,1-2.4,1.4-3.42H58.3c.45,1,.91,2.19,1.4,3.42C61.88,66.67,64.35,73,69.17,73a5.68,5.68,0,0,0,4.26-1.66A7.74,7.74,0,0,0,75.28,66.25Zm-10-25.19A7.94,7.94,0,1,1,57.39,49,8,8,0,0,1,65.33,41.06ZM58,55.67H42a9.88,9.88,0,0,0,1-12.06H57a9.88,9.88,0,0,0,1,12.06ZM34.67,41.06a7.94,7.94,0,1,1-8,7.94A7.95,7.95,0,0,1,34.67,41.06ZM30.83,71A3.73,3.73,0,0,1,28,70a5.78,5.78,0,0,1-1.29-3.71V55a9.92,9.92,0,0,0,12.8,2.71c-.35.85-.71,1.75-1.08,2.69C36.59,65.1,34.28,71,30.83,71ZM72,70a3.72,3.72,0,0,1-2.83,1c-3.45,0-5.76-5.9-7.61-10.64-.37-.94-.73-1.84-1.08-2.69A9.92,9.92,0,0,0,73.28,55V66.28A5.83,5.83,0,0,1,72,70Z" style="fill:#232f3e"/><path d="M65.33,51.56A2.56,2.56,0,1,0,62.78,49,2.56,2.56,0,0,0,65.33,51.56Z" style="fill:#232f3e"/></g></svg>