<svg id="Layer_1" data-name="Layer 1" xmlns="http://www.w3.org/2000/svg" width="50" height="50" viewBox="0 0 50 50"><title>IoT_Certificate-Manager_dark-bg</title><path d="M18.41,27.84a7.56,7.56,0,1,1,0-15.12,7.48,7.48,0,0,1,7,4.69h.89l1.41-1.52a1,1,0,0,1,1.46,0l1.42,1.52h.27l1.42-1.52a1,1,0,0,1,1.46,0l1.41,1.52h1.28a1.05,1.05,0,0,1,.64.22l2.28,1.88A1,1,0,0,1,39.4,21l-1.71,1.87a1,1,0,0,1-.74.33H25.36A7.48,7.48,0,0,1,18.41,27.84Zm0-13.12a5.56,5.56,0,1,0,5.29,7.15,1,1,0,0,1,1-.71H36.51l.7-.78-1.19-1H34.67a1,1,0,0,1-.73-.32L33,18l-1,1.05a1,1,0,0,1-.73.32H30.1a1,1,0,0,1-.73-.32l-1-1.05-1,1.05a1,1,0,0,1-.73.32h-2a1,1,0,0,1-1-.71A5.53,5.53,0,0,0,18.41,14.72Zm-2,8.56a3,3,0,1,1,3-3A3,3,0,0,1,16.41,23.28Zm0-4a1,1,0,1,0,1,1A1,1,0,0,0,16.41,19.28Z" style="fill:#6cae3e"/><path d="M25,38.16A18.35,18.35,0,1,1,43.31,19.81,18.37,18.37,0,0,1,25,38.16ZM25,3.47A16.35,16.35,0,1,0,41.31,19.81,16.37,16.37,0,0,0,25,3.47Z" style="fill:#6cae3e"/><path d="M32.47,48.94a1,1,0,0,1-.57-.18L25,44,18,48.76a1,1,0,0,1-1,.06,1,1,0,0,1-.53-.88V37.16h2V46L24.4,42a1,1,0,0,1,1.14,0L31.47,46V37.16h2V47.94a1,1,0,0,1-.54.88A.93.93,0,0,1,32.47,48.94Z" style="fill:#6cae3e"/></svg>