<svg xmlns="http://www.w3.org/2000/svg" width="100" height="100" viewBox="0 0 100 100"><title>Analytics_dark-bg</title><g id="BACKGROUND"><rect x="8.5" y="8.5" width="82" height="82" style="fill:#a166ff"/><path d="M89,10V89H10V10H89m3-3H7V92H92V7Z" style="fill:#fff"/><rect width="100" height="100" style="fill:none"/></g><g id="ICONS"><path d="M74.89,62a1,1,0,0,0-.89-.55H70V35a3.52,3.52,0,0,0-3.53-3.5H33.58A3.52,3.52,0,0,0,30.05,35V61.45H26a1,1,0,0,0-.89.55,1,1,0,0,0,.09,1l3.79,5a1,1,0,0,0,.8.4H70.21a1,1,0,0,0,.8-.4l3.79-5A1,1,0,0,0,74.89,62ZM32.05,35a1.52,1.52,0,0,1,1.53-1.5H66.42A1.52,1.52,0,0,1,68,35V61.45H32.05ZM69.71,66.5H30.29l-2.29-3H72Z" style="fill:#232f3e"/><path d="M63.92,39.12a.9.9,0,0,0-.17-.26l0-.06h0a.87.87,0,0,0-.32-.22A1.09,1.09,0,0,0,63,38.5H58v2h2.56l-9.39,9.26-4.36-3.27a1,1,0,0,0-1.31.09l-8.84,8.84a1,1,0,0,0,0,1.42,1,1,0,0,0,.71.29,1,1,0,0,0,.71-.29l8.22-8.23,4.36,3.27A1,1,0,0,0,52,51.79l10-9.9V44.5h2v-5s0-.06,0-.09A.94.94,0,0,0,63.92,39.12Z" style="fill:#232f3e"/></g></svg>