<svg xmlns="http://www.w3.org/2000/svg" width="100" height="100" viewBox="0 0 100 100"><title>Mobile_dark-bg</title><g id="BACKGROUND"><rect x="8.5" y="8.5" width="82" height="82" style="fill:#ff5252"/><path d="M89,10V89H10V10H89m3-3H7V92H92V7Z" style="fill:#fff"/><rect width="100" height="100" style="fill:none"/><g id="ICONS_-_EDIT" data-name="ICONS - EDIT"><path d="M72.71,36H61V28.57A3.55,3.55,0,0,0,57.48,25h-29A3.55,3.55,0,0,0,25,28.57V67.43A3.55,3.55,0,0,0,28.52,71H51v1.71A2.3,2.3,0,0,0,53.29,75H72.71A2.3,2.3,0,0,0,75,72.71h0V38.29A2.3,2.3,0,0,0,72.71,36ZM28.52,69A1.54,1.54,0,0,1,27,67.44h0V28.57A1.54,1.54,0,0,1,28.51,27h29A1.54,1.54,0,0,1,59,28.57V36H56V31a1,1,0,0,0-1-1H31a1,1,0,0,0-1,1V64a1,1,0,0,0,1,1H51v4ZM51,38.29V63H32V32H54v4h-.74A2.3,2.3,0,0,0,51,38.29ZM73,72.71a.29.29,0,0,1-.29.29H53.29a.29.29,0,0,1-.29-.29h0V65H73ZM73,63H53V38.29a.29.29,0,0,1,.29-.29H72.71a.29.29,0,0,1,.29.29h0Z" style="fill:#232f3e"/><rect x="61" y="68" width="4" height="2" style="fill:#232f3e"/></g></g></svg>