<svg id="Layer_1" data-name="Layer 1" xmlns="http://www.w3.org/2000/svg" width="50" height="50" viewBox="0 0 50 50"><title>AWS-General_User_dark-bg</title><path d="M48,48H3a1,1,0,0,1-1-1V44a22.73,22.73,0,0,1,17.36-22.1,1.06,1.06,0,0,1,.72.09,11.17,11.17,0,0,0,5.42,1.38A11.38,11.38,0,0,0,30.9,22a1,1,0,0,1,.71-.09A22.73,22.73,0,0,1,49,44v3A1,1,0,0,1,48,48ZM4,46H47V44A20.72,20.72,0,0,0,31.5,24a13.48,13.48,0,0,1-6,1.43,13.21,13.21,0,0,1-6-1.43A20.71,20.71,0,0,0,4,44Z" style="fill:#fff"/><path d="M25.47,25.31a12.18,12.18,0,0,1-5.9-1.5A12.13,12.13,0,1,1,37.66,13.23a12,12,0,0,1-6.32,10.58h0A12.38,12.38,0,0,1,25.47,25.31Zm0-22.19a10.08,10.08,0,0,0-4.94,18.94,10.33,10.33,0,0,0,9.85,0,10.06,10.06,0,0,0,5.28-8.83A10.16,10.16,0,0,0,25.47,3.12Z" style="fill:#fff"/></svg>