<svg id="Layer_1" data-name="Layer 1" xmlns="http://www.w3.org/2000/svg" width="50" height="50" viewBox="0 0 50 50"><title>AWS-General_Mobile-Client_dark-bg</title><path d="M33,48.5H18.12c-3,0-4.83-1.53-4.83-4V6.38A4.86,4.86,0,0,1,18.12,1.5H33a4.86,4.86,0,0,1,4.83,4.88V10h-2V6.38A2.86,2.86,0,0,0,33,3.5H18.12a2.86,2.86,0,0,0-2.83,2.88V44.51c0,1.32.95,2,2.83,2H33c1.88,0,2.83-.67,2.83-2V42.16h2v2.35C37.78,47,35.93,48.5,33,48.5Z" style="fill:#fff"/><rect x="24.59" y="5.25" width="5.63" height="2" style="fill:#fff"/><path d="M20.84,8a1.7,1.7,0,1,1,1.68-1.7A1.69,1.69,0,0,1,20.84,8Zm0-2a.3.3,0,1,0,.33.3A.31.31,0,0,0,20.84,6Z" style="fill:#fff"/><path d="M37.78,38.13h-2V11H14.28V9h22.5a1,1,0,0,1,1,1Z" style="fill:#fff"/><path d="M36.78,42.88H14.28v-2h21.5V36.25h2v5.63A1,1,0,0,1,36.78,42.88Z" style="fill:#fff"/></svg>