<svg xmlns="http://www.w3.org/2000/svg" width="100" height="100" viewBox="0 0 100 100"><title>Robotics_dark-bg</title><g id="BACKGROUND"><rect x="8.5" y="8.5" width="82" height="82" style="fill:#ff5252"/><path d="M89,10V89H10V10H89m3-3H7V92H92V7Z" style="fill:#fff"/><rect width="100" height="100" style="fill:none"/></g><g id="ICONS"><path d="M73,61l-3-2.09V56H66.83A16,16,0,0,0,53.1,42v-2.4a3.1,3.1,0,0,0-6.2,0V42A16,16,0,0,0,33.17,56H30v2.94L27,61v7.33l3,2.1V73H70V70.46l3-2.1Zm-5-3V71H67V58.41c0-.14,0-.27,0-.41ZM48.9,39.56a1.1,1.1,0,0,1,2.2,0v2.19c-.37,0-.73,0-1.1,0s-.73,0-1.1,0ZM50,43.7c8.69,0,15,6.19,15,14.71V71H35V58.41C35,49.89,41.31,43.7,50,43.7ZM29,67.32V62.08l1-.7V68ZM32,58h1c0,.14,0,.27,0,.41V71H32Zm39,9.32L70,68V61.38l1,.7Z" style="fill:#232f3e"/><path d="M43.45,61a3.62,3.62,0,1,0-3.62-3.61A3.62,3.62,0,0,0,43.45,61Zm0-5.23a1.62,1.62,0,1,1-1.62,1.62A1.62,1.62,0,0,1,43.45,55.75Z" style="fill:#232f3e"/><path d="M56.55,61a3.62,3.62,0,1,0-3.62-3.61A3.62,3.62,0,0,0,56.55,61Zm0-5.23a1.62,1.62,0,1,1-1.62,1.62A1.62,1.62,0,0,1,56.55,55.75Z" style="fill:#232f3e"/><path d="M42.8,33.89l1.34,1.48a8.73,8.73,0,0,1,11.59-.1l1.32-1.51a10.74,10.74,0,0,0-14.25.13Z" style="fill:#232f3e"/><path d="M50,29a12.83,12.83,0,0,1,8.58,3.29l1.34-1.49a14.86,14.86,0,0,0-20,.12l1.35,1.47A12.86,12.86,0,0,1,50,29Z" style="fill:#232f3e"/></g></svg>