<svg xmlns="http://www.w3.org/2000/svg" width="100" height="100" viewBox="0 0 100 100"><title>Customer-Engagement_dark-bg</title><g id="BACKGROUND"><rect x="8.5" y="8.5" width="82" height="82" style="fill:#527fff"/><path d="M89,10V89H10V10H89m3-3H7V92H92V7Z" style="fill:#fff"/><rect width="100" height="100" style="fill:none"/><rect width="100" height="100" style="fill:none"/></g><g id="ICONS"><rect x="32" y="53.61" width="4" height="4" style="fill:#232f3e"/><rect x="39" y="53.61" width="4" height="4" style="fill:#232f3e"/><rect x="46" y="53.61" width="4" height="4" style="fill:#232f3e"/><path d="M73,26.61H44a1,1,0,0,0-1,1v17H27a1,1,0,0,0-1,1v21a1,1,0,0,0,1,1H40l7.42,5.58a1,1,0,0,0,.6.2,1,1,0,0,0,.45-.1,1,1,0,0,0,.55-.9V67.61h6a1,1,0,0,0,1-1v-15h4v5a1,1,0,0,0,.58.9,1,1,0,0,0,.42.1,1.06,1.06,0,0,0,.65-.24l6.88-5.81H73a1,1,0,0,0,1-1v-23A1,1,0,0,0,73,26.61Zm-19,39H48a1,1,0,0,0-1,1v3.78l-6.08-4.58a1,1,0,0,0-.6-.2H28v-19H54Zm18-16H68.16a1,1,0,0,0-.65.23L62,54.5V50.61a1,1,0,0,0-1-1H56v-4a1,1,0,0,0-1-1H45v-16H72Z" style="fill:#232f3e"/><rect x="49" y="32.61" width="19" height="2" style="fill:#232f3e"/><rect x="49" y="38.61" width="19" height="2" style="fill:#232f3e"/></g></svg>