<svg id="Product_Icon" data-name="Product Icon" xmlns="http://www.w3.org/2000/svg" viewBox="0 0 75 75"><title>AWS-Command-Line-Interface_dark-bg</title><rect id="Blue_Dark_BG" data-name="Blue Dark BG" width="75" height="75" style="fill:#527fff"/><g id="Product_Icon-2" data-name="Product Icon"><path d="M61.5,61.5h-7v-2h6v-44h-46v44h28v2h-29a1,1,0,0,1-1-1v-46a1,1,0,0,1,1-1h48a1,1,0,0,1,1,1v46A1,1,0,0,1,61.5,61.5Z" style="fill:#232f3e"/><rect x="13.5" y="21.5" width="48" height="2" style="fill:#232f3e"/><rect x="16.5" y="17.5" width="2" height="2" style="fill:#232f3e"/><rect x="20.5" y="17.5" width="2" height="2" style="fill:#232f3e"/><rect x="24.5" y="17.5" width="2" height="2" style="fill:#232f3e"/><path d="M24,50.81l-1.41-1.42,8.89-8.88-8.89-8.89L24,30.2l9.6,9.6a1,1,0,0,1,.29.71,1,1,0,0,1-.29.7Z" style="fill:#232f3e"/><rect x="35.5" y="45.5" width="15" height="2" style="fill:#232f3e"/></g></svg>