<?xml version="1.0" encoding="utf-8"?>
<!-- Generator: Adobe Illustrator 23.0.1, SVG Export Plug-In . SVG Version: 6.00 Build 0)  -->
<svg version="1.1" id="Product_Icon" xmlns="http://www.w3.org/2000/svg" xmlns:xlink="http://www.w3.org/1999/xlink" x="0px"
	 y="0px" viewBox="0 0 75 75" style="enable-background:new 0 0 75 75;" xml:space="preserve">
<style type="text/css">
	.st0{fill:url(#Pink_Gradient_1_);}
	.st1{fill:#FFFFFF;}
</style>
<title>AWS-Systems-Manager</title>
<linearGradient id="Pink_Gradient_1_" gradientUnits="userSpaceOnUse" x1="-37.5" y1="37.5021" x2="112.5" y2="37.5021" gradientTransform="matrix(0.7071 -0.7071 -0.7071 -0.7071 37.503 90.533)">
	<stop  offset="0" style="stop-color:#B0084D"/>
	<stop  offset="1" style="stop-color:#FF4F8B"/>
</linearGradient>
<rect id="Pink_Gradient" class="st0" width="75" height="75"/>
<g id="Icon_Test">
	<path class="st1" d="M43.5,50.5h12v2h-12v1h-2v-1h-3v-2h3v-1h2V50.5z M47.5,44.5h-2v1h-7v2h7v1h2v-1h8v-2h-8V44.5z M18.4,42.9
		c-2.5-1.5-4-4.3-3.9-7.2c-0.2-3.6,2.3-6.8,5.9-7.5c0.5-0.1,0.8-0.5,0.8-1L21,25.7c0.1-4.4,2.7-8.3,6.6-10.2
		c4.3-1.9,9.4-0.9,12.6,2.5c1.4,1.5,2.5,3.2,3.1,5.1c0.1,0.3,0.4,0.6,0.8,0.6c0.4,0.1,0.7-0.1,1-0.4c1.1-1.5,2.9-2.1,4.6-1.5
		c1.9,0.6,3,2.5,3,5c-0.1,0.3,0,0.5,0.2,0.8c0.2,0.2,0.4,0.4,0.7,0.4c2.1,0.4,7,1.8,7,7.7c0,0.2,0,0.5,0,0.7l2,0.1
		c0-0.2,0-0.5,0-0.8c0-6.8-5.2-8.9-7.8-9.5c-0.2-3.1-1.8-5.5-4.3-6.3c-2-0.6-4.1-0.3-5.7,1c-0.7-1.6-1.7-3.1-3-4.4
		c-3.8-4-9.7-5.2-14.8-2.9c-4.7,2.2-7.8,6.9-7.9,12.1v0.7c-4,1.2-6.8,5-6.6,9.2c-0.1,3.6,1.8,7,4.9,8.9c0.9,0.6,1.9,0.9,3,0.9h8.1
		v-2h-8.1C19.6,43.5,19,43.3,18.4,42.9z M51.5,39.5h-2v1h-11v2h11v1h2v-1h4v-2h-4V39.5z M62.2,42.8c0.2,0.2,0.3,0.4,0.3,0.7v6
		c0,0.3-0.1,0.5-0.3,0.7c-0.2,0.2-0.5,0.3-0.8,0.3l-1.7-0.1c-0.3,1-0.7,1.9-1.1,2.8l1.2,1.1c0.2,0.2,0.3,0.4,0.3,0.7
		c0,0.3-0.1,0.5-0.3,0.7L55.7,60c-0.2,0.2-0.5,0.3-0.7,0.3c-0.3,0-0.5-0.1-0.7-0.3l-1.1-1.2c-0.9,0.5-1.8,0.9-2.8,1.2l0.1,1.7
		c0,0.3-0.1,0.5-0.3,0.7c-0.2,0.2-0.5,0.3-0.7,0.3h-6c-0.3,0-0.5-0.1-0.7-0.3c-0.2-0.2-0.3-0.5-0.3-0.7l0.1-1.7
		c-1-0.3-1.9-0.7-2.8-1.2l-1.1,1.2c-0.2,0.2-0.4,0.3-0.7,0.3c-0.3,0-0.5-0.1-0.7-0.3l-4.2-4.3c-0.2-0.2-0.3-0.5-0.3-0.7
		c0-0.3,0.1-0.5,0.3-0.7l1.2-1.1c-0.5-0.9-0.9-1.8-1.1-2.8l-1.7,0.1c-0.3,0-0.5-0.1-0.8-0.3c-0.2-0.2-0.3-0.5-0.3-0.7v-6
		c0-0.6,0.4-1,1-1c0,0,0,0,0.1,0l1.7,0.1c0.3-1,0.7-1.9,1.1-2.8l-1.2-1.1c-0.2-0.2-0.3-0.4-0.3-0.7c0-0.3,0.1-0.5,0.3-0.7l4.2-4.2
		c0.2-0.2,0.5-0.3,0.7-0.3c0.3,0,0.5,0.1,0.7,0.3l1.1,1.2c0.9-0.5,1.8-0.9,2.8-1.1l-0.1-1.7c0-0.3,0.1-0.5,0.3-0.7
		c0.2-0.2,0.5-0.3,0.7-0.3h6c0.3,0,0.5,0.1,0.7,0.3c0.2,0.2,0.3,0.5,0.3,0.7l-0.1,1.7c1,0.3,1.9,0.7,2.8,1.1l1.1-1.2
		c0.2-0.2,0.4-0.3,0.7-0.3c0.3,0,0.5,0.1,0.7,0.3l4.2,4.2c0.2,0.2,0.3,0.5,0.3,0.7c0,0.3-0.1,0.5-0.3,0.7l-1.2,1.1
		c0.5,0.9,0.9,1.8,1.1,2.8l1.7-0.1C61.7,42.5,62,42.6,62.2,42.8z M60.5,44.6l-1.4,0.1c-0.5,0-0.9-0.3-1-0.8
		c-0.3-1.3-0.8-2.6-1.5-3.7c-0.3-0.4-0.2-1,0.2-1.3l1-0.9L55,35.2l-1,1.1c-0.3,0.4-0.9,0.4-1.3,0.2c-1.1-0.7-2.3-1.2-3.6-1.5
		c-0.5-0.1-0.8-0.5-0.8-1l0.1-1.4h-3.8l0.1,1.4c0,0.5-0.3,0.9-0.8,1c-1.3,0.3-2.5,0.8-3.7,1.5c-0.4,0.3-1,0.2-1.3-0.2l-1-1.1
		L35.2,38l1.1,1c0.4,0.3,0.4,0.9,0.2,1.3c-0.7,1.1-1.2,2.3-1.5,3.6c-0.1,0.5-0.5,0.8-1,0.8l-1.4-0.1v3.8l1.4-0.1
		c0.5,0,0.9,0.3,1,0.8c0.3,1.3,0.8,2.6,1.5,3.7c0.3,0.4,0.2,1-0.2,1.3l-1.1,1l2.7,2.7l1-1.1c0.3-0.4,0.9-0.4,1.3-0.2
		c1.1,0.7,2.4,1.2,3.7,1.5c0.5,0.1,0.8,0.5,0.8,1l-0.1,1.4h3.8L48.3,59c0-0.5,0.3-0.9,0.8-1c1.3-0.3,2.6-0.8,3.7-1.5
		c0.4-0.3,1-0.2,1.3,0.2l0.9,1.1l2.8-2.8l-1.1-1c-0.4-0.3-0.4-0.9-0.2-1.3c0.7-1.1,1.2-2.3,1.5-3.6c0.1-0.5,0.5-0.8,1-0.8l1.4,0.1
		L60.5,44.6z"/>
</g>
</svg>
