<svg xmlns="http://www.w3.org/2000/svg" width="100" height="100" viewBox="0 0 100 100"><title>Media-Services_dark-bg</title><g id="BACKGROUND"><rect x="8.5" y="8.5" width="82" height="82" style="fill:#f90"/><path d="M89,10V89H10V10H89m3-3H7V92H92V7Z" style="fill:#fff"/><rect width="100" height="100" style="fill:none"/><g id="ICONS_-_EDIT" data-name="ICONS - EDIT"><path d="M72,38H66.54l-4.85,6H60V34a3.9,3.9,0,0,0-3.93-3H29.54a3,3,0,0,0-2.33.73A3.5,3.5,0,0,0,26,34.27v31.5a3.48,3.48,0,0,0,1.79,2.88,3.69,3.69,0,0,0,1.54.35H56.07A3.92,3.92,0,0,0,60,66V56h1.69l4.85,6H72a2.26,2.26,0,0,0,2-2.31V40.43A2.29,2.29,0,0,0,72,38ZM58,54V65.54c-.32.81-1,1.54-1.76,1.46H29.37a1.1,1.1,0,0,1-.87-.27,1.39,1.39,0,0,1-.5-1V34.32a1.39,1.39,0,0,1,.5-1,1.13,1.13,0,0,1,.73-.32h27c.79-.1,1.44.63,1.76,1.44V46h4.64L66,41.84V58.16L62.65,54Zm14,5.77c0,.09-.1.18-.24.23H68V40h3.76a.32.32,0,0,1,.24.33Z" style="fill:#232f3e"/><path d="M38.17,59.49a2.32,2.32,0,0,1-1-.26,2.19,2.19,0,0,1-1.17-2V42.44a2.2,2.2,0,0,1,1.17-1.95,2.17,2.17,0,0,1,2.24.12L51.51,48a2.25,2.25,0,0,1,1,1.86,2.21,2.21,0,0,1-1,1.83L39.34,59.13A2,2,0,0,1,38.17,59.49Zm0-17.49h-.08a.21.21,0,0,0-.11.19V57a.19.19,0,0,0,.11.19.15.15,0,0,0,.18,0l12.18-7.44a.24.24,0,0,0,0-.33l-12.1-7.39a.26.26,0,0,0-.19-.07Z" style="fill:#232f3e"/></g></g></svg>