<svg xmlns="http://www.w3.org/2000/svg" width="100" height="100" viewBox="0 0 100 100"><title>Blockchain_dark-bg</title><g id="BACKGROUND"><rect x="8.5" y="8.5" width="82" height="82" style="fill:#f90"/><path d="M89,10V89H10V10H89m3-3H7V92H92V7Z" style="fill:#fff"/><rect width="100" height="100" style="fill:none"/><g id="ICONS_-_EDIT" data-name="ICONS - EDIT"><path d="M37,52.13A1.87,1.87,0,0,1,35.13,54H30.87A1.87,1.87,0,0,1,29,52.13h0V47.87A1.87,1.87,0,0,1,30.87,46h4.26A1.87,1.87,0,0,1,37,47.87h0ZM31,52h4V48H31Z" style="fill:#232f3e"/><path d="M54,52.13A1.87,1.87,0,0,1,52.13,54H47.88A1.87,1.87,0,0,1,46,52.14h0V47.86A1.87,1.87,0,0,1,47.87,46h4.26A1.87,1.87,0,0,1,54,47.87h0ZM48,52h4V48H48Z" style="fill:#232f3e"/><path d="M69.13,54H64.87A1.87,1.87,0,0,1,63,52.13V47.87A1.87,1.87,0,0,1,64.87,46h4.26A1.87,1.87,0,0,1,71,47.87h0v4.26A1.87,1.87,0,0,1,69.13,54ZM65,52h4V48H65Z" style="fill:#232f3e"/><path d="M73,58H61a2,2,0,0,1-2-2V53H58v3a2,2,0,0,1-2,2H44.06A2,2,0,0,1,42,56.06V53H41v3a2,2,0,0,1-2,2H27a2,2,0,0,1-2-2V44a2,2,0,0,1,2-2H39a2,2,0,0,1,2,2v3h1V44a2,2,0,0,1,2-2H56a2,2,0,0,1,2,2v3h1V44a2.07,2.07,0,0,1,2-2H73a2,2,0,0,1,2,2V56A2,2,0,0,1,73,58ZM61,51v5H73V44H61v5H56V44H44v5H39V44H27V56H39V51h5v5H56V51Z" style="fill:#232f3e"/></g></g></svg>