<svg xmlns="http://www.w3.org/2000/svg" width="100" height="100" viewBox="0 0 100 100"><title>AR-VR_dark-bg</title><g id="BACKGROUND"><rect x="8.5" y="8.5" width="82" height="82" style="fill:#ff4f8b"/><path d="M89,10V89H10V10H89m3-3H7V92H92V7Z" style="fill:#fff"/><rect width="100" height="100" style="fill:none"/><g id="ICONS_-_EDIT" data-name="ICONS - EDIT"><path d="M74.77,41.36l-.06-.07-5-5.93A1,1,0,0,0,69,35H31.05a1,1,0,0,0-.76.36l-5,5.93-.06.07A1,1,0,0,0,25,42V60.12A4.84,4.84,0,0,0,29.79,65H40.38a6.06,6.06,0,0,0,5.21-3l3.1-5.36a1.51,1.51,0,0,1,2-.58,1.61,1.61,0,0,1,.58.58L54.41,62a6.06,6.06,0,0,0,5.21,3H70.21A4.84,4.84,0,0,0,75,60.12V42A1,1,0,0,0,74.77,41.36ZM31.74,37h37l3.37,4H28.37ZM73,60.12A2.85,2.85,0,0,1,70.21,63H59.62a4,4,0,0,1-3.48-2L53,55.6a3.51,3.51,0,0,0-6.08,0L43.86,61a4,4,0,0,1-3.48,2H29.79A2.85,2.85,0,0,1,27,60.12V43H73Z" style="fill:#232f3e"/></g></g></svg>